<mxfile host="app.diagrams.net" modified="2022-03-10T10:03:17.569Z" agent="5.0 (Windows NT 10.0; Win64; x64) AppleWebKit/537.36 (KHTML, like Gecko) Chrome/99.0.4844.51 Safari/537.36 Edg/99.0.1150.36" etag="1qpqip2K6STCrjxOcK62" version="17.1.0" type="github">
  <diagram id="GxeuKTXnx9VGVfUCvlwk" name="Page-1">
    <mxGraphModel dx="1532" dy="808" grid="1" gridSize="10" guides="1" tooltips="1" connect="1" arrows="1" fold="1" page="1" pageScale="1" pageWidth="850" pageHeight="1100" math="1" shadow="0">
      <root>
        <mxCell id="0" />
        <mxCell id="1" parent="0" />
        <mxCell id="Da9pE7p7JjAD6fLggsI1-22" style="edgeStyle=orthogonalEdgeStyle;rounded=0;orthogonalLoop=1;jettySize=auto;html=1;entryX=0;entryY=0.5;entryDx=0;entryDy=0;endArrow=classic;endFill=1;startArrow=none;startFill=0;fontSize=13;fontStyle=1" parent="1" source="Da9pE7p7JjAD6fLggsI1-18" target="Da9pE7p7JjAD6fLggsI1-20" edge="1">
          <mxGeometry relative="1" as="geometry" />
        </mxCell>
        <mxCell id="Da9pE7p7JjAD6fLggsI1-18" value="$$\omega_{t-1,a-1,s}^X$$" style="rounded=1;whiteSpace=wrap;html=1;fillColor=#FFFFFF;strokeColor=#7EA6E0;gradientColor=#CCE5FF;fontSize=13;fontStyle=1" parent="1" vertex="1">
          <mxGeometry x="130" y="163" width="76" height="60" as="geometry" />
        </mxCell>
        <mxCell id="Da9pE7p7JjAD6fLggsI1-23" style="edgeStyle=orthogonalEdgeStyle;rounded=0;orthogonalLoop=1;jettySize=auto;html=1;entryX=0;entryY=0.5;entryDx=0;entryDy=0;startArrow=none;startFill=0;endArrow=classic;endFill=1;fontSize=13;fontStyle=1" parent="1" source="Da9pE7p7JjAD6fLggsI1-19" target="Da9pE7p7JjAD6fLggsI1-21" edge="1">
          <mxGeometry relative="1" as="geometry" />
        </mxCell>
        <mxCell id="Da9pE7p7JjAD6fLggsI1-25" value="$$\xi_{t-1|t,a,s}^{NPC}$$" style="rounded=0;orthogonalLoop=1;jettySize=auto;html=1;entryX=0;entryY=1;entryDx=0;entryDy=0;startArrow=none;startFill=0;endArrow=classic;endFill=1;strokeWidth=3;exitX=1;exitY=0;exitDx=0;exitDy=0;fillColor=#f8cecc;strokeColor=#67AB9F;fontSize=13;fontStyle=1" parent="1" source="Da9pE7p7JjAD6fLggsI1-19" target="Da9pE7p7JjAD6fLggsI1-20" edge="1">
          <mxGeometry relative="1" as="geometry" />
        </mxCell>
        <mxCell id="Da9pE7p7JjAD6fLggsI1-19" value="$$\omega_{t-1,a,s}^X$$" style="rounded=1;whiteSpace=wrap;html=1;fillColor=#FFFFFF;strokeColor=#7EA6E0;gradientColor=#CCE5FF;fontSize=13;fontStyle=1" parent="1" vertex="1">
          <mxGeometry x="130" y="243" width="76" height="60" as="geometry" />
        </mxCell>
        <mxCell id="Da9pE7p7JjAD6fLggsI1-20" value="$$\omega_{t,a,s}^X$$" style="rounded=1;whiteSpace=wrap;html=1;gradientColor=#CCE5FF;strokeColor=#7EA6E0;fontSize=13;fontStyle=1" parent="1" vertex="1">
          <mxGeometry x="310" y="163" width="80" height="60" as="geometry" />
        </mxCell>
        <mxCell id="Da9pE7p7JjAD6fLggsI1-21" value="$$\omega_{t,a+1,s}^X$$" style="rounded=1;whiteSpace=wrap;html=1;strokeColor=#7EA6E0;gradientColor=#CCE5FF;fontSize=13;fontStyle=1" parent="1" vertex="1">
          <mxGeometry x="310" y="243" width="80" height="60" as="geometry" />
        </mxCell>
        <mxCell id="Da9pE7p7JjAD6fLggsI1-27" value="" style="endArrow=none;dashed=1;html=1;dashPattern=1 3;strokeWidth=2;rounded=0;entryX=0.5;entryY=1;entryDx=0;entryDy=0;fontSize=13;fontStyle=1" parent="1" target="Da9pE7p7JjAD6fLggsI1-21" edge="1">
          <mxGeometry width="50" height="50" relative="1" as="geometry">
            <mxPoint x="350" y="343" as="sourcePoint" />
            <mxPoint x="515" y="243" as="targetPoint" />
          </mxGeometry>
        </mxCell>
        <mxCell id="Da9pE7p7JjAD6fLggsI1-28" value="" style="endArrow=none;dashed=1;html=1;dashPattern=1 3;strokeWidth=2;rounded=0;entryX=0.5;entryY=1;entryDx=0;entryDy=0;fontSize=13;fontStyle=1" parent="1" edge="1">
          <mxGeometry width="50" height="50" relative="1" as="geometry">
            <mxPoint x="167.64" y="343" as="sourcePoint" />
            <mxPoint x="167.64" y="303" as="targetPoint" />
          </mxGeometry>
        </mxCell>
        <mxCell id="Da9pE7p7JjAD6fLggsI1-29" value="" style="endArrow=none;dashed=1;html=1;dashPattern=1 3;strokeWidth=2;rounded=0;entryX=0.5;entryY=1;entryDx=0;entryDy=0;fontSize=13;fontStyle=1" parent="1" edge="1">
          <mxGeometry width="50" height="50" relative="1" as="geometry">
            <mxPoint x="349.64" y="163" as="sourcePoint" />
            <mxPoint x="349.64" y="123" as="targetPoint" />
          </mxGeometry>
        </mxCell>
        <mxCell id="Da9pE7p7JjAD6fLggsI1-31" value="" style="endArrow=none;dashed=1;html=1;dashPattern=1 3;strokeWidth=2;rounded=0;entryX=0.5;entryY=1;entryDx=0;entryDy=0;fontSize=13;fontStyle=1" parent="1" edge="1">
          <mxGeometry width="50" height="50" relative="1" as="geometry">
            <mxPoint x="168.63999999999987" y="164" as="sourcePoint" />
            <mxPoint x="168.63999999999987" y="124" as="targetPoint" />
          </mxGeometry>
        </mxCell>
        <mxCell id="Da9pE7p7JjAD6fLggsI1-32" value="" style="endArrow=none;dashed=1;html=1;dashPattern=1 3;strokeWidth=2;rounded=0;fontSize=13;fontStyle=1" parent="1" edge="1">
          <mxGeometry width="50" height="50" relative="1" as="geometry">
            <mxPoint x="168" y="243" as="sourcePoint" />
            <mxPoint x="168" y="223" as="targetPoint" />
          </mxGeometry>
        </mxCell>
        <mxCell id="Da9pE7p7JjAD6fLggsI1-33" value="" style="endArrow=none;dashed=1;html=1;dashPattern=1 3;strokeWidth=2;rounded=0;fontSize=13;fontStyle=1" parent="1" edge="1">
          <mxGeometry width="50" height="50" relative="1" as="geometry">
            <mxPoint x="350" y="243" as="sourcePoint" />
            <mxPoint x="350" y="223" as="targetPoint" />
          </mxGeometry>
        </mxCell>
        <mxCell id="Da9pE7p7JjAD6fLggsI1-40" value="$$t-1$$" style="text;html=1;strokeColor=none;fillColor=none;align=center;verticalAlign=middle;whiteSpace=wrap;rounded=0;fontColor=#2B394D;fontStyle=1;fontSize=13;" parent="1" vertex="1">
          <mxGeometry x="160" y="133" width="60" height="30" as="geometry" />
        </mxCell>
        <mxCell id="Da9pE7p7JjAD6fLggsI1-41" value="$$t$$" style="text;html=1;strokeColor=none;fillColor=none;align=center;verticalAlign=middle;whiteSpace=wrap;rounded=0;fontColor=#2B394D;fontStyle=1;fontSize=13;" parent="1" vertex="1">
          <mxGeometry x="310" y="132" width="60" height="30" as="geometry" />
        </mxCell>
        <mxCell id="Da9pE7p7JjAD6fLggsI1-42" style="edgeStyle=orthogonalEdgeStyle;rounded=0;orthogonalLoop=1;jettySize=auto;html=1;entryX=0;entryY=0.5;entryDx=0;entryDy=0;endArrow=classic;endFill=1;startArrow=none;startFill=0;strokeColor=#B85450;dashed=1;fontSize=13;fontStyle=1" parent="1" source="Da9pE7p7JjAD6fLggsI1-43" target="Da9pE7p7JjAD6fLggsI1-47" edge="1">
          <mxGeometry relative="1" as="geometry" />
        </mxCell>
        <mxCell id="Da9pE7p7JjAD6fLggsI1-43" value="$$\omega_{t-1,a-1,s}^{Y,f}$$" style="rounded=1;whiteSpace=wrap;html=1;fillColor=#FFFFFF;strokeColor=#7EA6E0;gradientColor=#CCE5FF;fontSize=13;fontStyle=1" parent="1" vertex="1">
          <mxGeometry x="432" y="162" width="76" height="60" as="geometry" />
        </mxCell>
        <mxCell id="Da9pE7p7JjAD6fLggsI1-44" style="edgeStyle=orthogonalEdgeStyle;rounded=0;orthogonalLoop=1;jettySize=auto;html=1;entryX=0;entryY=0.5;entryDx=0;entryDy=0;startArrow=none;startFill=0;endArrow=classic;endFill=1;strokeColor=#B85450;dashed=1;fontSize=13;fontStyle=1" parent="1" source="Da9pE7p7JjAD6fLggsI1-46" target="Da9pE7p7JjAD6fLggsI1-48" edge="1">
          <mxGeometry relative="1" as="geometry" />
        </mxCell>
        <mxCell id="Da9pE7p7JjAD6fLggsI1-45" value="$$\kappa_{t,a,s}^{\omega,Y,f}&lt;br&gt;\xi_{t-1|t,a,s}^{NPC}$$" style="rounded=0;orthogonalLoop=1;jettySize=auto;html=1;entryX=0;entryY=1;entryDx=0;entryDy=0;startArrow=none;startFill=0;endArrow=classic;endFill=1;strokeWidth=3;exitX=1.009;exitY=0.161;exitDx=0;exitDy=0;fillColor=#f8cecc;strokeColor=#b85450;labelBackgroundColor=default;exitPerimeter=0;fontSize=13;fontStyle=1" parent="1" source="Da9pE7p7JjAD6fLggsI1-46" target="Da9pE7p7JjAD6fLggsI1-47" edge="1">
          <mxGeometry x="-0.0777" relative="1" as="geometry">
            <Array as="points">
              <mxPoint x="636" y="222" />
            </Array>
            <mxPoint as="offset" />
          </mxGeometry>
        </mxCell>
        <mxCell id="Da9pE7p7JjAD6fLggsI1-46" value="$$\omega_{t-1,a,s}^{Y,f}$$" style="rounded=1;whiteSpace=wrap;html=1;fillColor=#FFFFFF;strokeColor=#7EA6E0;gradientColor=#CCE5FF;fontSize=13;fontStyle=1" parent="1" vertex="1">
          <mxGeometry x="432" y="242" width="76" height="60" as="geometry" />
        </mxCell>
        <mxCell id="Da9pE7p7JjAD6fLggsI1-47" value="$$\omega_{t,a,s}^{Y,f}$$" style="rounded=1;whiteSpace=wrap;html=1;gradientColor=#F19C99;strokeColor=#B85450;fontSize=13;fontStyle=1" parent="1" vertex="1">
          <mxGeometry x="644" y="162" width="80" height="60" as="geometry" />
        </mxCell>
        <mxCell id="Da9pE7p7JjAD6fLggsI1-48" value="$$\omega_{t,a+1,s}^{Y,f}$$" style="rounded=1;whiteSpace=wrap;html=1;strokeColor=#B85450;gradientColor=#F19C99;fontSize=13;fontStyle=1" parent="1" vertex="1">
          <mxGeometry x="643" y="242" width="80" height="60" as="geometry" />
        </mxCell>
        <mxCell id="Da9pE7p7JjAD6fLggsI1-49" value="" style="endArrow=none;dashed=1;html=1;dashPattern=1 3;strokeWidth=2;rounded=0;entryX=0.5;entryY=1;entryDx=0;entryDy=0;fontSize=13;fontStyle=1" parent="1" edge="1">
          <mxGeometry width="50" height="50" relative="1" as="geometry">
            <mxPoint x="687" y="342" as="sourcePoint" />
            <mxPoint x="687.0000000000002" y="302" as="targetPoint" />
          </mxGeometry>
        </mxCell>
        <mxCell id="Da9pE7p7JjAD6fLggsI1-50" value="" style="endArrow=none;dashed=1;html=1;dashPattern=1 3;strokeWidth=2;rounded=0;entryX=0.5;entryY=1;entryDx=0;entryDy=0;fontSize=13;fontStyle=1" parent="1" edge="1">
          <mxGeometry width="50" height="50" relative="1" as="geometry">
            <mxPoint x="470" y="323" as="sourcePoint" />
            <mxPoint x="469.6399999999999" y="302" as="targetPoint" />
          </mxGeometry>
        </mxCell>
        <mxCell id="Da9pE7p7JjAD6fLggsI1-51" value="" style="endArrow=none;dashed=1;html=1;dashPattern=1 3;strokeWidth=2;rounded=0;entryX=0.5;entryY=1;entryDx=0;entryDy=0;fontSize=13;fontStyle=1" parent="1" edge="1">
          <mxGeometry width="50" height="50" relative="1" as="geometry">
            <mxPoint x="686.6399999999999" y="162" as="sourcePoint" />
            <mxPoint x="686.6399999999999" y="122" as="targetPoint" />
          </mxGeometry>
        </mxCell>
        <mxCell id="Da9pE7p7JjAD6fLggsI1-52" value="" style="endArrow=none;dashed=1;html=1;dashPattern=1 3;strokeWidth=2;rounded=0;entryX=0.5;entryY=1;entryDx=0;entryDy=0;fontSize=13;fontStyle=1" parent="1" edge="1">
          <mxGeometry width="50" height="50" relative="1" as="geometry">
            <mxPoint x="470.6399999999999" y="163" as="sourcePoint" />
            <mxPoint x="470.6399999999999" y="123" as="targetPoint" />
          </mxGeometry>
        </mxCell>
        <mxCell id="Da9pE7p7JjAD6fLggsI1-53" value="" style="endArrow=none;dashed=1;html=1;dashPattern=1 3;strokeWidth=2;rounded=0;fontSize=13;fontStyle=1" parent="1" edge="1">
          <mxGeometry width="50" height="50" relative="1" as="geometry">
            <mxPoint x="470" y="242" as="sourcePoint" />
            <mxPoint x="470" y="222" as="targetPoint" />
          </mxGeometry>
        </mxCell>
        <mxCell id="Da9pE7p7JjAD6fLggsI1-54" value="" style="endArrow=none;dashed=1;html=1;dashPattern=1 3;strokeWidth=2;rounded=0;fontSize=13;fontStyle=1" parent="1" edge="1">
          <mxGeometry width="50" height="50" relative="1" as="geometry">
            <mxPoint x="687" y="242" as="sourcePoint" />
            <mxPoint x="687" y="222" as="targetPoint" />
          </mxGeometry>
        </mxCell>
        <mxCell id="Da9pE7p7JjAD6fLggsI1-55" value="$$t-1$$" style="text;html=1;strokeColor=none;fillColor=none;align=center;verticalAlign=middle;whiteSpace=wrap;rounded=0;fontColor=#2B394D;fontStyle=1;fontSize=13;" parent="1" vertex="1">
          <mxGeometry x="466" y="125" width="60" height="30" as="geometry" />
        </mxCell>
        <mxCell id="Da9pE7p7JjAD6fLggsI1-56" value="$$t$$" style="text;html=1;strokeColor=none;fillColor=none;align=center;verticalAlign=middle;whiteSpace=wrap;rounded=0;fontColor=#2B394D;fontStyle=1;fontSize=13;" parent="1" vertex="1">
          <mxGeometry x="612" y="132" width="60" height="30" as="geometry" />
        </mxCell>
        <mxCell id="Da9pE7p7JjAD6fLggsI1-57" value="Celá populácia X" style="text;html=1;strokeColor=none;fillColor=none;align=center;verticalAlign=middle;whiteSpace=wrap;rounded=0;fontStyle=1" parent="1" vertex="1">
          <mxGeometry x="212" y="95" width="110" height="30" as="geometry" />
        </mxCell>
        <mxCell id="Da9pE7p7JjAD6fLggsI1-58" value="Pacienti s diagnózou Y" style="text;html=1;strokeColor=none;fillColor=none;align=center;verticalAlign=middle;whiteSpace=wrap;rounded=0;fontStyle=1" parent="1" vertex="1">
          <mxGeometry x="481" y="93" width="140" height="30" as="geometry" />
        </mxCell>
        <mxCell id="Da9pE7p7JjAD6fLggsI1-59" value="$$\omega_{t-1,a+1,s}^{Y,f}$$" style="rounded=1;whiteSpace=wrap;html=1;fillColor=#FFFFFF;strokeColor=#7EA6E0;gradientColor=#CCE5FF;fontSize=13;fontStyle=1" parent="1" vertex="1">
          <mxGeometry x="432" y="325" width="76" height="60" as="geometry" />
        </mxCell>
        <mxCell id="Da9pE7p7JjAD6fLggsI1-61" value="$$\kappa_{t,a+1,s}^{\omega,Y,f}&lt;br&gt;\xi_{t-1|t,a+1,s}^{NPC}$$" style="rounded=0;orthogonalLoop=1;jettySize=auto;html=1;startArrow=none;startFill=0;endArrow=classic;endFill=1;strokeWidth=3;fillColor=#f8cecc;strokeColor=#b85450;entryX=0;entryY=1;entryDx=0;entryDy=0;exitX=1;exitY=0.25;exitDx=0;exitDy=0;fontSize=13;fontStyle=1" parent="1" source="Da9pE7p7JjAD6fLggsI1-59" target="Da9pE7p7JjAD6fLggsI1-48" edge="1">
          <mxGeometry relative="1" as="geometry">
            <mxPoint x="506" y="323" as="sourcePoint" />
            <mxPoint x="636" y="302" as="targetPoint" />
          </mxGeometry>
        </mxCell>
        <mxCell id="Da9pE7p7JjAD6fLggsI1-64" value="$$\kappa_{t,a-1,s}^{\omega,Y,f}\xi_{t-1|t,a-1,s}^{NPC}$$" style="rounded=0;orthogonalLoop=1;jettySize=auto;html=1;startArrow=none;startFill=0;endArrow=classic;endFill=1;strokeWidth=3;fillColor=#f8cecc;strokeColor=#b85450;entryX=0.5;entryY=0;entryDx=0;entryDy=0;fontSize=13;fontStyle=1" parent="1" target="Da9pE7p7JjAD6fLggsI1-56" edge="1">
          <mxGeometry relative="1" as="geometry">
            <mxPoint x="510" y="164" as="sourcePoint" />
            <mxPoint x="620" y="144" as="targetPoint" />
          </mxGeometry>
        </mxCell>
        <mxCell id="Da9pE7p7JjAD6fLggsI1-66" value="$$\omega_{t,a-1,s}^{Y,f}$$" style="rounded=1;whiteSpace=wrap;html=1;gradientColor=#F19C99;strokeColor=#B85450;" parent="1" vertex="1">
          <mxGeometry x="644" y="80" width="80" height="60" as="geometry" />
        </mxCell>
        <mxCell id="MiMw2aQQkFAXE1BBumIr-1" style="edgeStyle=orthogonalEdgeStyle;rounded=0;orthogonalLoop=1;jettySize=auto;html=1;entryX=0;entryY=0.5;entryDx=0;entryDy=0;endArrow=classic;endFill=1;startArrow=none;startFill=0;fontSize=13;fontStyle=1" parent="1" source="MiMw2aQQkFAXE1BBumIr-2" target="MiMw2aQQkFAXE1BBumIr-6" edge="1">
          <mxGeometry relative="1" as="geometry" />
        </mxCell>
        <mxCell id="MiMw2aQQkFAXE1BBumIr-2" value="$$\omega_{t-1,a-1,s}^X$$" style="rounded=1;whiteSpace=wrap;html=1;fillColor=#FFFFFF;strokeColor=#7EA6E0;gradientColor=#CCE5FF;fontSize=13;fontStyle=1" parent="1" vertex="1">
          <mxGeometry x="150" y="533" width="76" height="60" as="geometry" />
        </mxCell>
        <mxCell id="MiMw2aQQkFAXE1BBumIr-3" style="edgeStyle=orthogonalEdgeStyle;rounded=0;orthogonalLoop=1;jettySize=auto;html=1;entryX=0;entryY=0.5;entryDx=0;entryDy=0;startArrow=none;startFill=0;endArrow=classic;endFill=1;fontSize=13;fontStyle=1" parent="1" source="MiMw2aQQkFAXE1BBumIr-5" target="MiMw2aQQkFAXE1BBumIr-7" edge="1">
          <mxGeometry relative="1" as="geometry" />
        </mxCell>
        <mxCell id="MiMw2aQQkFAXE1BBumIr-4" value="$$\xi_{t-1|t,a,s}^{NPC}$$" style="rounded=0;orthogonalLoop=1;jettySize=auto;html=1;entryX=0;entryY=1;entryDx=0;entryDy=0;startArrow=none;startFill=0;endArrow=classic;endFill=1;strokeWidth=3;exitX=1;exitY=0;exitDx=0;exitDy=0;fillColor=#f8cecc;strokeColor=#67AB9F;fontSize=13;fontStyle=1" parent="1" source="MiMw2aQQkFAXE1BBumIr-5" target="MiMw2aQQkFAXE1BBumIr-6" edge="1">
          <mxGeometry relative="1" as="geometry" />
        </mxCell>
        <mxCell id="MiMw2aQQkFAXE1BBumIr-5" value="$$\omega_{t-1,a,s}^X$$" style="rounded=1;whiteSpace=wrap;html=1;fillColor=#FFFFFF;strokeColor=#7EA6E0;gradientColor=#CCE5FF;fontSize=13;fontStyle=1" parent="1" vertex="1">
          <mxGeometry x="150" y="613" width="76" height="60" as="geometry" />
        </mxCell>
        <mxCell id="MiMw2aQQkFAXE1BBumIr-6" value="$$\omega_{t,a,s}^X$$" style="rounded=1;whiteSpace=wrap;html=1;gradientColor=#CCE5FF;strokeColor=#7EA6E0;fontSize=13;fontStyle=1" parent="1" vertex="1">
          <mxGeometry x="330" y="533" width="80" height="60" as="geometry" />
        </mxCell>
        <mxCell id="MiMw2aQQkFAXE1BBumIr-7" value="$$\omega_{t,a+1,s}^X$$" style="rounded=1;whiteSpace=wrap;html=1;strokeColor=#7EA6E0;gradientColor=#CCE5FF;fontSize=13;fontStyle=1" parent="1" vertex="1">
          <mxGeometry x="330" y="613" width="80" height="60" as="geometry" />
        </mxCell>
        <mxCell id="MiMw2aQQkFAXE1BBumIr-8" value="" style="endArrow=none;dashed=1;html=1;dashPattern=1 3;strokeWidth=2;rounded=0;entryX=0.5;entryY=1;entryDx=0;entryDy=0;fontSize=13;fontStyle=1" parent="1" target="MiMw2aQQkFAXE1BBumIr-7" edge="1">
          <mxGeometry width="50" height="50" relative="1" as="geometry">
            <mxPoint x="370" y="713" as="sourcePoint" />
            <mxPoint x="535" y="613" as="targetPoint" />
          </mxGeometry>
        </mxCell>
        <mxCell id="MiMw2aQQkFAXE1BBumIr-9" value="" style="endArrow=none;dashed=1;html=1;dashPattern=1 3;strokeWidth=2;rounded=0;entryX=0.5;entryY=1;entryDx=0;entryDy=0;fontSize=13;fontStyle=1" parent="1" edge="1">
          <mxGeometry width="50" height="50" relative="1" as="geometry">
            <mxPoint x="187.63999999999987" y="713" as="sourcePoint" />
            <mxPoint x="187.63999999999987" y="673" as="targetPoint" />
          </mxGeometry>
        </mxCell>
        <mxCell id="MiMw2aQQkFAXE1BBumIr-10" value="" style="endArrow=none;dashed=1;html=1;dashPattern=1 3;strokeWidth=2;rounded=0;entryX=0.5;entryY=1;entryDx=0;entryDy=0;fontSize=13;fontStyle=1" parent="1" edge="1">
          <mxGeometry width="50" height="50" relative="1" as="geometry">
            <mxPoint x="369.6399999999999" y="533" as="sourcePoint" />
            <mxPoint x="369.6399999999999" y="493" as="targetPoint" />
          </mxGeometry>
        </mxCell>
        <mxCell id="MiMw2aQQkFAXE1BBumIr-11" value="" style="endArrow=none;dashed=1;html=1;dashPattern=1 3;strokeWidth=2;rounded=0;entryX=0.5;entryY=1;entryDx=0;entryDy=0;fontSize=13;fontStyle=1" parent="1" edge="1">
          <mxGeometry width="50" height="50" relative="1" as="geometry">
            <mxPoint x="188.63999999999987" y="534" as="sourcePoint" />
            <mxPoint x="188.63999999999987" y="494" as="targetPoint" />
          </mxGeometry>
        </mxCell>
        <mxCell id="MiMw2aQQkFAXE1BBumIr-12" value="" style="endArrow=none;dashed=1;html=1;dashPattern=1 3;strokeWidth=2;rounded=0;fontSize=13;fontStyle=1" parent="1" edge="1">
          <mxGeometry width="50" height="50" relative="1" as="geometry">
            <mxPoint x="188" y="613" as="sourcePoint" />
            <mxPoint x="188" y="593" as="targetPoint" />
          </mxGeometry>
        </mxCell>
        <mxCell id="MiMw2aQQkFAXE1BBumIr-13" value="" style="endArrow=none;dashed=1;html=1;dashPattern=1 3;strokeWidth=2;rounded=0;fontSize=13;fontStyle=1" parent="1" edge="1">
          <mxGeometry width="50" height="50" relative="1" as="geometry">
            <mxPoint x="370" y="613" as="sourcePoint" />
            <mxPoint x="370" y="593" as="targetPoint" />
          </mxGeometry>
        </mxCell>
        <mxCell id="MiMw2aQQkFAXE1BBumIr-14" value="$$t-1$$" style="text;html=1;strokeColor=none;fillColor=none;align=center;verticalAlign=middle;whiteSpace=wrap;rounded=0;fontColor=#2B394D;fontStyle=1;fontSize=13;" parent="1" vertex="1">
          <mxGeometry x="180" y="503" width="60" height="30" as="geometry" />
        </mxCell>
        <mxCell id="MiMw2aQQkFAXE1BBumIr-15" value="$$t$$" style="text;html=1;strokeColor=none;fillColor=none;align=center;verticalAlign=middle;whiteSpace=wrap;rounded=0;fontColor=#2B394D;fontStyle=1;fontSize=13;" parent="1" vertex="1">
          <mxGeometry x="330" y="502" width="60" height="30" as="geometry" />
        </mxCell>
        <mxCell id="MiMw2aQQkFAXE1BBumIr-16" style="edgeStyle=orthogonalEdgeStyle;rounded=0;orthogonalLoop=1;jettySize=auto;html=1;entryX=0;entryY=0.5;entryDx=0;entryDy=0;endArrow=classic;endFill=1;startArrow=none;startFill=0;strokeColor=#B85450;dashed=1;fontSize=13;fontStyle=1" parent="1" source="MiMw2aQQkFAXE1BBumIr-17" target="MiMw2aQQkFAXE1BBumIr-21" edge="1">
          <mxGeometry relative="1" as="geometry" />
        </mxCell>
        <mxCell id="MiMw2aQQkFAXE1BBumIr-17" value="$$\sigma_{t-1,a-1,s}^{Y,F}$$" style="rounded=1;whiteSpace=wrap;html=1;fillColor=#FFFFFF;strokeColor=#7EA6E0;gradientColor=#CCE5FF;fontSize=13;fontStyle=1" parent="1" vertex="1">
          <mxGeometry x="452" y="532" width="76" height="60" as="geometry" />
        </mxCell>
        <mxCell id="MiMw2aQQkFAXE1BBumIr-18" style="edgeStyle=orthogonalEdgeStyle;rounded=0;orthogonalLoop=1;jettySize=auto;html=1;entryX=0;entryY=0.5;entryDx=0;entryDy=0;startArrow=none;startFill=0;endArrow=classic;endFill=1;strokeColor=#B85450;dashed=1;fontSize=13;fontStyle=1" parent="1" source="MiMw2aQQkFAXE1BBumIr-20" target="MiMw2aQQkFAXE1BBumIr-22" edge="1">
          <mxGeometry relative="1" as="geometry" />
        </mxCell>
        <mxCell id="MiMw2aQQkFAXE1BBumIr-19" value="$$\kappa_{t,a,s}^{\sigma,Y,F}\xi_{t-1|t,a,s}^{NPC}$$" style="rounded=0;orthogonalLoop=1;jettySize=auto;html=1;entryX=0;entryY=1;entryDx=0;entryDy=0;startArrow=none;startFill=0;endArrow=classic;endFill=1;strokeWidth=3;exitX=1.009;exitY=0.161;exitDx=0;exitDy=0;fillColor=#f8cecc;strokeColor=#b85450;labelBackgroundColor=default;exitPerimeter=0;fontSize=13;fontStyle=1" parent="1" source="MiMw2aQQkFAXE1BBumIr-20" target="MiMw2aQQkFAXE1BBumIr-21" edge="1">
          <mxGeometry x="-0.0777" relative="1" as="geometry">
            <Array as="points">
              <mxPoint x="656" y="592" />
            </Array>
            <mxPoint as="offset" />
          </mxGeometry>
        </mxCell>
        <mxCell id="MiMw2aQQkFAXE1BBumIr-20" value="$$\sigma_{t-1,a,s}^{Y,F}$$" style="rounded=1;whiteSpace=wrap;html=1;fillColor=#FFFFFF;strokeColor=#7EA6E0;gradientColor=#CCE5FF;fontSize=13;fontStyle=1" parent="1" vertex="1">
          <mxGeometry x="452" y="612" width="76" height="60" as="geometry" />
        </mxCell>
        <mxCell id="MiMw2aQQkFAXE1BBumIr-21" value="$$\sigma_{t,a,s}^{Y,F}$$" style="rounded=1;whiteSpace=wrap;html=1;gradientColor=#F19C99;strokeColor=#B85450;fontSize=13;fontStyle=1" parent="1" vertex="1">
          <mxGeometry x="664" y="532" width="80" height="60" as="geometry" />
        </mxCell>
        <mxCell id="MiMw2aQQkFAXE1BBumIr-22" value="$$\sigma_{t,a+1,s}^{Y,F}$$" style="rounded=1;whiteSpace=wrap;html=1;strokeColor=#B85450;gradientColor=#F19C99;fontSize=13;fontStyle=1" parent="1" vertex="1">
          <mxGeometry x="663" y="612" width="80" height="60" as="geometry" />
        </mxCell>
        <mxCell id="MiMw2aQQkFAXE1BBumIr-23" value="" style="endArrow=none;dashed=1;html=1;dashPattern=1 3;strokeWidth=2;rounded=0;entryX=0.5;entryY=1;entryDx=0;entryDy=0;fontSize=13;fontStyle=1" parent="1" edge="1">
          <mxGeometry width="50" height="50" relative="1" as="geometry">
            <mxPoint x="707" y="712" as="sourcePoint" />
            <mxPoint x="707" y="672" as="targetPoint" />
          </mxGeometry>
        </mxCell>
        <mxCell id="MiMw2aQQkFAXE1BBumIr-24" value="" style="endArrow=none;dashed=1;html=1;dashPattern=1 3;strokeWidth=2;rounded=0;entryX=0.5;entryY=1;entryDx=0;entryDy=0;fontSize=13;fontStyle=1" parent="1" edge="1">
          <mxGeometry width="50" height="50" relative="1" as="geometry">
            <mxPoint x="490" y="693" as="sourcePoint" />
            <mxPoint x="489.6399999999999" y="672" as="targetPoint" />
          </mxGeometry>
        </mxCell>
        <mxCell id="MiMw2aQQkFAXE1BBumIr-25" value="" style="endArrow=none;dashed=1;html=1;dashPattern=1 3;strokeWidth=2;rounded=0;entryX=0.5;entryY=1;entryDx=0;entryDy=0;fontSize=13;fontStyle=1" parent="1" edge="1">
          <mxGeometry width="50" height="50" relative="1" as="geometry">
            <mxPoint x="706.6399999999999" y="532" as="sourcePoint" />
            <mxPoint x="706.6399999999999" y="492" as="targetPoint" />
          </mxGeometry>
        </mxCell>
        <mxCell id="MiMw2aQQkFAXE1BBumIr-26" value="" style="endArrow=none;dashed=1;html=1;dashPattern=1 3;strokeWidth=2;rounded=0;entryX=0.5;entryY=1;entryDx=0;entryDy=0;fontSize=13;fontStyle=1" parent="1" edge="1">
          <mxGeometry width="50" height="50" relative="1" as="geometry">
            <mxPoint x="490.6399999999999" y="533" as="sourcePoint" />
            <mxPoint x="490.6399999999999" y="493" as="targetPoint" />
          </mxGeometry>
        </mxCell>
        <mxCell id="MiMw2aQQkFAXE1BBumIr-27" value="" style="endArrow=none;dashed=1;html=1;dashPattern=1 3;strokeWidth=2;rounded=0;fontSize=13;fontStyle=1" parent="1" edge="1">
          <mxGeometry width="50" height="50" relative="1" as="geometry">
            <mxPoint x="490" y="612" as="sourcePoint" />
            <mxPoint x="490" y="592" as="targetPoint" />
          </mxGeometry>
        </mxCell>
        <mxCell id="MiMw2aQQkFAXE1BBumIr-28" value="" style="endArrow=none;dashed=1;html=1;dashPattern=1 3;strokeWidth=2;rounded=0;fontSize=13;fontStyle=1" parent="1" edge="1">
          <mxGeometry width="50" height="50" relative="1" as="geometry">
            <mxPoint x="707" y="612" as="sourcePoint" />
            <mxPoint x="707" y="592" as="targetPoint" />
          </mxGeometry>
        </mxCell>
        <mxCell id="MiMw2aQQkFAXE1BBumIr-29" value="$$t-1$$" style="text;html=1;strokeColor=none;fillColor=none;align=center;verticalAlign=middle;whiteSpace=wrap;rounded=0;fontColor=#2B394D;fontStyle=1;fontSize=13;" parent="1" vertex="1">
          <mxGeometry x="486" y="495" width="60" height="30" as="geometry" />
        </mxCell>
        <mxCell id="MiMw2aQQkFAXE1BBumIr-30" value="$$t$$" style="text;html=1;strokeColor=none;fillColor=none;align=center;verticalAlign=middle;whiteSpace=wrap;rounded=0;fontColor=#2B394D;fontStyle=1;fontSize=13;" parent="1" vertex="1">
          <mxGeometry x="632" y="502" width="60" height="30" as="geometry" />
        </mxCell>
        <mxCell id="MiMw2aQQkFAXE1BBumIr-31" value="Celá populácia X" style="text;html=1;strokeColor=none;fillColor=none;align=center;verticalAlign=middle;whiteSpace=wrap;rounded=0;fontStyle=1" parent="1" vertex="1">
          <mxGeometry x="232" y="465" width="110" height="30" as="geometry" />
        </mxCell>
        <mxCell id="MiMw2aQQkFAXE1BBumIr-32" value="Pacienti s diagnózou Y" style="text;html=1;strokeColor=none;fillColor=none;align=center;verticalAlign=middle;whiteSpace=wrap;rounded=0;fontStyle=1" parent="1" vertex="1">
          <mxGeometry x="501" y="463" width="140" height="30" as="geometry" />
        </mxCell>
        <mxCell id="MiMw2aQQkFAXE1BBumIr-33" value="$$\sigma_{t-1,a+1,s}^{Y,F}$$" style="rounded=1;whiteSpace=wrap;html=1;fillColor=#FFFFFF;strokeColor=#7EA6E0;gradientColor=#CCE5FF;fontSize=13;fontStyle=1" parent="1" vertex="1">
          <mxGeometry x="452" y="695" width="76" height="60" as="geometry" />
        </mxCell>
        <mxCell id="MiMw2aQQkFAXE1BBumIr-34" value="$$\kappa_{t,a+1,s}^{\sigma,Y,F}\xi_{t-1|t,a+1,s}^{NPC}$$" style="rounded=0;orthogonalLoop=1;jettySize=auto;html=1;startArrow=none;startFill=0;endArrow=classic;endFill=1;strokeWidth=3;fillColor=#f8cecc;strokeColor=#b85450;entryX=0;entryY=1;entryDx=0;entryDy=0;exitX=1;exitY=0.25;exitDx=0;exitDy=0;fontSize=13;fontStyle=1" parent="1" source="MiMw2aQQkFAXE1BBumIr-33" target="MiMw2aQQkFAXE1BBumIr-22" edge="1">
          <mxGeometry relative="1" as="geometry">
            <mxPoint x="526" y="693" as="sourcePoint" />
            <mxPoint x="656" y="672" as="targetPoint" />
          </mxGeometry>
        </mxCell>
        <mxCell id="MiMw2aQQkFAXE1BBumIr-35" value="$$\kappa_{t,a-1,s}^{\sigma,Y,F}\xi_{t-1|t,a-1,s}^{NPC}$$" style="rounded=0;orthogonalLoop=1;jettySize=auto;html=1;startArrow=none;startFill=0;endArrow=classic;endFill=1;strokeWidth=3;fillColor=#f8cecc;strokeColor=#b85450;entryX=0.5;entryY=0;entryDx=0;entryDy=0;fontSize=13;fontStyle=1" parent="1" target="MiMw2aQQkFAXE1BBumIr-30" edge="1">
          <mxGeometry relative="1" as="geometry">
            <mxPoint x="530" y="534" as="sourcePoint" />
            <mxPoint x="640" y="514" as="targetPoint" />
          </mxGeometry>
        </mxCell>
        <mxCell id="MiMw2aQQkFAXE1BBumIr-36" value="$$\sigma_{t,a-1,s}^{Y,F}$$" style="rounded=1;whiteSpace=wrap;html=1;gradientColor=#F19C99;strokeColor=#B85450;" parent="1" vertex="1">
          <mxGeometry x="664" y="450" width="80" height="60" as="geometry" />
        </mxCell>
        <mxCell id="MiMw2aQQkFAXE1BBumIr-37" value="&lt;h1&gt;Pravdepodobnosť úmrtia&lt;/h1&gt;" style="text;html=1;strokeColor=none;fillColor=none;spacing=5;spacingTop=-20;whiteSpace=wrap;overflow=hidden;rounded=0;" parent="1" vertex="1">
          <mxGeometry x="291" y="30" width="339" height="40" as="geometry" />
        </mxCell>
        <mxCell id="MiMw2aQQkFAXE1BBumIr-38" value="&lt;h1&gt;Pravdepodobnosť ochorenia&lt;/h1&gt;" style="text;html=1;strokeColor=none;fillColor=none;spacing=5;spacingTop=-20;whiteSpace=wrap;overflow=hidden;rounded=0;" parent="1" vertex="1">
          <mxGeometry x="282" y="423" width="339" height="40" as="geometry" />
        </mxCell>
      </root>
    </mxGraphModel>
  </diagram>
</mxfile>
